<?xml version="1.0" encoding="UTF-8" standalone="no"?>
<!-- Created with Inkscape (http://www.inkscape.org/) -->

<svg
   version="1.1"
   id="svg1"
   width="327.67999"
   height="327.67999"
   viewBox="0 0 327.67999 327.67999"
   xmlns="http://www.w3.org/2000/svg"
   xmlns:svg="http://www.w3.org/2000/svg">
  <defs
     id="defs1" />
  <g
     id="g1">
    <path
       style="fill:#b263e4;stroke:none"
       d="m 80.120467,100.17656 c -3.33142,0 -11.59895,-1.561533 -13.16543,2.24148 -0.93792,2.27699 -0.27457,5.88051 -0.27457,8.31852 v 19.2 65.92 20.8 c 0,2.43562 -0.77008,6.4963 0.64296,8.60519 1.13142,1.68855 3.35207,1.3148 5.11704,1.3148 h 13.76 c 10.70739,0 21.709643,-0.11933 32.320003,1.41704 7.58888,1.09888 14.90032,3.87535 22.4,4.98296 0.21068,4.6104 3.81206,7.94 7.68,9.98989 7.79774,4.13252 19.00982,3.96515 26.56,-0.73086 1.92029,-1.19438 3.73769,-2.75094 4.80468,-4.77903 0.73159,-1.39056 0.91467,-3.52605 2.28149,-4.45257 2.95736,-2.00473 7.73136,-2.40243 11.15383,-3.1894 7.7315,-1.77779 16.0732,-2.82248 24,-2.91679 7.45054,-0.0886 15.33447,0.78427 22.71999,-0.18543 3.99616,-0.52469 12.06389,2.16002 14.71704,-1.79161 1.41181,-2.10279 0.64296,-6.15271 0.64296,-8.58419 v -20.8 -65.6 -18.88 c 0,-2.59656 0.63957,-6.21166 -0.39308,-8.63852 -1.63289,-3.837443 -9.93158,-2.24148 -13.36692,-2.24148 0,-3.531853 1.54655,-11.231933 -1.29753,-13.670863 -3.29012,-2.8214 -11.32963,-0.73558 -15.34247,-0.72914 -15.48042,0.0249 -32.89259,1.04895 -47.67999,5.97334 -4.30985,1.43524 -8.29592,3.06787 -12.16,5.4874 -1.11893,0.70062 -3.10707,3.240163 -4.45136,3.057543 -1.40331,-0.19065 -3.5779,-2.857543 -4.82864,-3.691133 -3.05891,-2.03867 -6.45208,-3.2823 -9.92,-4.42689 -15.20769,-5.01934 -31.5455,-5.34588 -47.360003,-6.42889 -3.84546,-0.26334 -7.65683,-0.29137 -11.52,-0.29137 -2.04492,0 -3.99929,-0.19883 -5.61013,1.29407 -2.8365,2.62882 -1.42987,9.82693 -1.42987,13.425933 m 76.800003,116.8 c -4.8946,-2.28524 -9.51523,-4.83774 -14.72,-6.4368 -17.52728,-5.3849 -35.68811,-5.4032 -53.760003,-5.4032 V 93.776557 c 15.984183,0 33.433263,0.24539 48.960003,4.4316 6.24966,1.68498 13.00709,3.436113 17.56641,8.373093 2.48958,2.6958 2.27359,6.17869 2.27359,9.59531 v 17.6 56.96 17.28 c 0,2.84834 0.48978,6.22037 -0.32,8.96 M 233.72046,93.776557 V 205.13656 c -17.88019,0 -35.45392,0.30691 -52.79999,5.25679 -5.64512,1.6109 -10.62704,4.34621 -16,6.58321 v -80 -20.48 c 0,-2.92028 -0.66453,-6.46754 1.24171,-8.90569 4.60377,-5.88834 12.29041,-8.016543 19.23829,-9.616283 15.62044,-3.5966 32.35976,-4.19803 48.31999,-4.19803 m 8,14.400003 5.76,0.32 v 110.08 c -20.83378,0 -42.11906,-1.02163 -62.39999,4.6158 -3.20065,0.88966 -7.70879,1.82603 -10.2052,4.12962 -1.89619,1.74973 -1.14592,4.30467 -2.49975,6.28963 -2.52371,3.70022 -8.57597,3.89129 -12.57505,3.84371 -3.322,-0.0395 -8.43285,-1.08951 -10.28543,-4.16 -1.12771,-1.86906 -0.3114,-3.97828 -1.94297,-5.72517 -2.1761,-2.32992 -6.24284,-3.20963 -9.2116,-4.0568 -20.61416,-5.88246 -42.453603,-5.25679 -63.680003,-5.25679 v -110.08 c 1.27473,0 4.5586,-0.58856 5.43111,0.51308 0.97202,1.22729 0.32889,4.70121 0.32889,6.20692 v 17.28 59.2 14.72 c 0,1.99914 -0.42389,4.42863 1.07012,6.0116 2.30796,2.44537 7.16662,1.25996 10.12988,1.05703 7.59322,-0.51998 15.489313,-0.065 23.040003,0.6657 10.93299,1.05799 22.48666,3.10031 32.64,7.44246 3.06772,1.31194 6.03051,3.12188 8.64,5.19629 1.44039,1.14504 2.81133,3.1602 4.8,3.25803 2.02691,0.0997 3.35941,-1.80426 4.8,-2.93705 2.51623,-1.97858 5.44648,-3.54115 8.32,-4.93135 8.37177,-4.05021 18.33044,-6.17846 27.52,-7.35135 9.67632,-1.23504 19.37378,-1.37136 29.11999,-1.37136 3.12422,0 8.54069,1.42912 10.64247,-1.6336 1.29562,-1.88797 0.55753,-5.76488 0.55753,-7.9664 v -19.84 z"
       id="path1" />
  </g>
</svg>
